# xmcd CD database file
#
# Track frame offsets:
#	150
#	55208
#	95597
#	133974
#	163947
#	210577
#	225035
#	250642
#	269319
#
# Disc length: 4047 seconds
#
# Revision: 0
# Processed by: cddbd v1.5.2PL0 Copyright (c) Steve Scherf et al.
# Submitted via: CDex 1.70beta2
#
DISCID=760fcd09
DTITLE=Mike Baggetta - Source Material
DYEAR=2010
DGENRE=Jazz
TTITLE0=Tonic
TTITLE1=Nathan
TTITLE2=Liberty
TTITLE3=Momentum
TTITLE4=The Sky and The Sea
TTITLE5=The Winter Moon
TTITLE6=A Trust Issue
TTITLE7=Projections
TTITLE8=Camp
EXTD=YEAR: 2010
EXTT0=
EXTT1=
EXTT2=
EXTT3=
EXTT4=
EXTT5=
EXTT6=
EXTT7=
EXTT8=
PLAYORDER=
